{"title":"The Pervert's Guide to Ideology 2012 WEBDL 720p Legendado PT-BR","uid":13468247,"size":3720102043,"categoryP":"video","categoryS":"hd___tv_shows","magnet":"?xt=urn:btih:74ef3133fff92f1505e051530c711df6dde10c3e&amp;dn=The+Pervert%27s+Guide+to+Ideology+2012+WEBDL+720p+Legendado+PT-BR&amp;tr=udp%3A%2F%2Ftracker.leechers-paradise.org%3A6969&amp;tr=udp%3A%2F%2Fzer0day.ch%3A1337&amp;tr=udp%3A%2F%2Fopen.demonii.com%3A1337&amp;tr=udp%3A%2F%2Ftracker.coppersurfer.tk%3A6969&amp;tr=udp%3A%2F%2Fexodus.desync.com%3A6969","seeders":3,"leechers":0,"uploader":null,"files":1,"time":1454959804,"description":"Audio: English\r\nLegendas/subtitles: Português (MKV track)\r\n\r\n==============================================\r\n\r\nCultural theorist superstar Slavoj iek re-teams with director Sophie Fiennes (The Pervert's Guide to Cinema) for another wildly entertaining romp through the crossroads of cinema and philosophy. With infectious zeal and a voracious appetite for popular culture, iek literally goes inside some truly epochal movies, all the better to explore and expose how they reinforce prevailing ideologies. As the ideology that undergirds our cinematic fantasies is revealed, striking associations emerge: What hidden Catholic teachings lurk at the heart of The Sound of Music? What are the fascist political dimensions of Jaws? Taxi Driver, Zabriskie Point, The Searchers, The Dark Knight, John Carpenter's They Live (&quot;one of the forgotten masterpieces of the Hollywood Left&quot;), Titanic, Kinder Eggs, verité news footage, Beethoven's &quot;Ode to Joy&quot; and propaganda epics from Nazi Germany and Soviet Russia all inform iek's stimulating, provocative and often hilarious psychoanalytic-cinematic rant.\r\n\r\n===============================================\r\n\r\nO teórico cultural e superstar Slavoj Žižek reúne-se novamente com a diretora Sophie Fiennes (O Guia Pervertido do Cinema) para outra louca traquinagem através da mistura de cinema e filosofia. Com ardor contagiante e epetite voraz pela cultura popular, Žižek literalmente entra no cenário de alguns filmes icônicos para explorar e expor como eles reforçam a ideologia dominante.\r\n\r\nÀ medida que a ideologia presente em nossas fantasias cinematográficas são reveladas, associações impressionantes aparecem: Quais dogmas católicos foram ocultos no coração de A Noviça Rebelde? Quais são as dimensões políticas e facistas de Tubarão?\r\n\r\nTaxi Driver, Zabriskie Point, Rastros de Ódio, Batman: O Cavaleiro das Trevas, Eles Vivem (&quot;uma das obras primas esquecidas de John Carpenter&quot;), Titanic, o Hino à Alegria de Beethoven, épicos da propaganda da Alemanha Nazista e da Rússia Soviética, todos alimentam o estimulante, provocativo e às vezes hilário desvario psicoanalítico de Žižek.\r\n\r\n================================================\r\n\r\nVideo\r\nID                             : 1\r\nFormat                         : AVC\r\nFormat/Info                    : Advanced Video Codec\r\nFormat profile                 :   \r\nFormat settings, CABAC         : Yes\r\nFormat settings, ReFrames      : 4 frames\r\nCodec ID                       : V_MPEG4/ISO/AVC\r\nDuration                       : 2h 16mn\r\nBit rate                       : 3 000 Kbps\r\nWidth                          : 1 280 pixels\r\nHeight                         : 720 pixels\r\nDisplay aspect ratio           : 16:9\r\nFrame rate mode                : Constant\r\nFrame rate                     : 23.976 fps\r\nColor space                    : YUV\r\nChroma subsampling             : 4:2:0\r\nBit depth                      : 8 bits\r\nScan type                      : Progressive\r\nBits/(Pixel*Frame)             : 0.136\r\nStream size                    : 2.79 GiB (80%)\r\n\r\nAudio\r\nID                             : 2\r\nFormat                         : AC-3\r\nFormat/Info                    : Audio Coding 3\r\nMode extension                 : CM (complete main)\r\nFormat settings, Endianness    : Big\r\nCodec ID                       : A_AC3\r\nDuration                       : 2h 16mn\r\nBit rate mode                  : Constant\r\nBit rate                       : 640 Kbps\r\nChannel(s)                     : 2 channels\r\nChannel positions              : Front: L R\r\nSampling rate                  : 48.0 KHz\r\nBit depth                      : 16 bits\r\nCompression mode               : Lossy\r\nStream size                    : 623 MiB (18%)\r\nLanguage                       : English\r\nDefault                        : Yes\r\nForced                         : No\r\n\r\nText\r\nID                             : 3\r\nFormat                         : UTF-8\r\nCodec ID                       : S_TEXT/UTF8\r\nCodec ID/Info                  : UTF-8 Plain Text\r\nLanguage                       : Portuguese\r\nDefault                        : Yes\r\nForced                         : No","torrent":{"xt":"urn:btih:74ef3133fff92f1505e051530c711df6dde10c3e","amp;dn":"The+Pervert%27s+Guide+to+Ideology+2012+WEBDL+720p+Legendado+PT-BR","amp;tr":["udp%3A%2F%2Ftracker.leechers-paradise.org%3A6969","udp%3A%2F%2Fzer0day.ch%3A1337","udp%3A%2F%2Fopen.demonii.com%3A1337","udp%3A%2F%2Ftracker.coppersurfer.tk%3A6969","udp%3A%2F%2Fexodus.desync.com%3A6969"],"infoHash":"74ef3133fff92f1505e051530c711df6dde10c3e","infoHashBuffer":{"type":"Buffer","data":[116,239,49,51,255,249,47,21,5,224,81,83,12,113,29,246,221,225,12,62]},"announce":[],"urlList":[]}}